<?xml version="1.0" standalone="no"?>
<!DOCTYPE svg PUBLIC "-//W3C//DTD SVG 20010904//EN"
 "http://www.w3.org/TR/2001/REC-SVG-20010904/DTD/svg10.dtd">
<svg version="1.0" xmlns="http://www.w3.org/2000/svg"
 width="260.000000pt" height="260.000000pt" viewBox="0 0 260.000000 260.000000"
 preserveAspectRatio="xMidYMid meet">
<metadata>
Created by potrace 1.11, written by Peter Selinger 2001-2013
</metadata>
<g transform="translate(0.000000,260.000000) scale(0.100000,-0.100000)"
fill="#000000" stroke="none">
<path d="M729 1983 c-1 -219 -3 -408 -4 -420 -8 -78 -85 -124 -150 -89 -37 20
-50 49 -61 126 -3 25 -7 46 -8 47 -6 7 -303 -41 -312 -51 -16 -16 7 -122 44
-200 51 -107 129 -166 253 -192 151 -31 315 -7 414 61 100 68 148 168 161 333
6 69 9 632 5 755 l-1 27 -170 0 -170 0 -1 -397z"/>
<path d="M1353 1795 l0 -586 337 1 c186 1 355 5 376 10 21 5 53 11 69 13 83
13 164 77 206 164 34 69 38 189 10 263 -28 73 -59 106 -136 144 l-63 32 45 24
c144 77 166 303 41 430 -83 84 -107 88 -529 89 l-356 1 0 -585z m578 329 c37
-19 49 -37 53 -80 5 -51 -17 -92 -57 -109 -18 -7 -76 -13 -132 -14 l-100 -2 2
101 c1 55 2 105 2 111 1 15 200 10 232 -7z m50 -447 c48 -32 63 -101 34 -156
-23 -45 -77 -61 -205 -61 l-110 0 -1 30 c0 17 0 59 0 95 0 36 0 77 0 91 l1 26
128 -4 c100 -2 132 -7 153 -21z"/>
<path d="M2060 951 c-149 -31 -233 -194 -194 -377 31 -148 109 -214 260 -220
87 -3 142 8 189 40 79 53 110 122 120 266 5 78 -32 175 -86 228 -60 58 -183
85 -289 63z m145 -151 c40 -25 51 -50 54 -126 5 -124 -37 -189 -117 -183 -50
4 -70 17 -93 61 -24 48 -26 155 -3 204 30 62 99 81 159 44z"/>
<path d="M294 655 l0 -295 86 0 86 0 0 295 0 295 -86 0 -86 0 0 -295z"/>
<path d="M630 938 c-1 -21 -1 -202 -1 -395 l1 -183 80 0 80 0 0 161 0 162 85
-129 c47 -71 89 -138 94 -149 17 -39 36 -46 117 -43 l77 3 0 280 c-1 154 -2
286 -2 293 -1 8 -24 12 -81 12 l-80 0 -2 -160 -3 -159 -101 157 -101 157 -81
3 c-62 2 -82 0 -82 -10z"/>
<path d="M1316 658 l1 -293 86 -3 87 -3 0 116 0 115 109 0 109 0 1 60 1 60
-110 0 -110 0 0 50 0 49 128 3 127 3 0 65 -1 65 -214 3 -215 2 1 -292z"/>
</g>
</svg>
