<?xml version="1.0" encoding="utf-8"?>
<!-- Generator: Adobe Illustrator 22.0.0, SVG Export Plug-In . SVG Version: 6.00 Build 0)  -->
<svg version="1.1" id="Layer_1" xmlns="http://www.w3.org/2000/svg" xmlns:xlink="http://www.w3.org/1999/xlink" x="0px"
     y="0px"
     viewBox="0 0 231.2 142.8" style="enable-background:new 0 0 231.2 142.8;" xml:space="preserve">
<style type="text/css">
	.st0{fill:#0d78c3;}
</style>
    <g>
	<path class="st0" d="M96,0v96.6c0,14.8-4,26.2-12.1,34.2c-8.1,8-19.2,12-33.5,12c-15.5,0-27.7-4.4-36.8-13.1C4.5,121,0,108.4,0,92
		h33.8c0,13.2,5,19.8,15,19.8c8.7,0,13-5.1,13-15.2V0H96z"/>
        <path class="st0" d="M223.7,81c5,6.3,7.5,13.5,7.5,21.8c0,12.1-4,21.6-12.1,28.4c-8.1,6.8-19.6,10.2-34.7,10.2h-65.8V0h64.2
		c14.4,0,25.5,3.1,33.4,9.4c7.9,6.3,11.8,15.2,11.8,26.8c0,8.5-2.3,15.6-6.8,21.3c-4.5,5.7-10.5,9.4-17.8,11.1
		C211.9,70.6,218.7,74.7,223.7,81z M152.8,57.8h22.4c11.9,0,17.8-5.1,17.8-15.2c0-10.1-6.1-15.2-18.2-15.2h-22V57.8z M196.2,98
		c0-5.1-1.7-9-5-11.9c-3.3-2.9-8.1-4.3-14.2-4.3h-24.2v31.8h24.4C189.9,113.6,196.2,108.4,196.2,98z"/>
</g>
</svg>
